<svg width="611.6px" height="84.8px" xmlns="http://www.w3.org/2000/svg" viewBox="-55.79998168945309 32.6 611.5999633789062 84.8" style="background: rgba(0, 0, 0, 0)" preserveAspectRatio="xMidYMid"><defs><linearGradient id="editing-gradient-gradient" x1="0" x2="1" y1="0.5" y2="0.5" gradientUnits="objectBoundingBox"><stop offset="0" stop-color="#575af0"></stop><stop offset="1" stop-color="#000700"></stop></linearGradient></defs><g><g transform="matrix(1.3,0,0,2,-19.8,206.6)"><path d="M -10.5 -54.8 L -19.5 -54.8 L -14.3 -81.8 L -5.2 -81.8 L -10.5 -54.8 Z M 25.2 -54 L 25.2 -54 L 25.2 -54 Q 20.2 -54 20.2 -57.8 L 20.2 -57.8 L 20.2 -57.8 Q 20.2 -59.5 20.9 -62.7 L 20.9 -62.7 L 20.9 -62.7 Q 21.7 -66 21.9 -67.3 L 21.9 -67.3 L 21.9 -67.3 Q 22.5 -70.3 22.5 -71.3 L 22.5 -71.3 L 22.5 -71.3 Q 22.5 -73.3 20.9 -73.3 L 20.9 -73.3 L 20.9 -73.3 Q 19.9 -73.3 18.9 -71.9 L 18.9 -71.9 L 18.9 -71.9 Q 17.9 -70.5 17.5 -67.7 L 17.5 -67.7 L 14.9 -54.8 L 6.9 -54 L 9.2 -65.1 L 9.2 -65.1 Q 9.5 -67 9.9 -69 L 9.9 -69 L 9.9 -69 Q 10.2 -71.1 10.2 -71.5 L 10.2 -71.5 L 10.2 -71.5 Q 10.2 -73.3 8.8 -73.3 L 8.8 -73.3 L 8.8 -73.3 Q 7.8 -73.3 6.8 -72 L 6.8 -72 L 6.8 -72 Q 5.8 -70.6 5.2 -67.7 L 5.2 -67.7 L 2.7 -54.8 L -5.4 -54 L -1 -75.7 L 5.6 -76.5 L 4.9 -72.4 L 4.9 -72.4 Q 6 -74.6 8 -75.5 L 8 -75.5 L 8 -75.5 Q 9.9 -76.5 13 -76.5 L 13 -76.5 L 13 -76.5 Q 14.8 -76.5 15.9 -75.6 L 15.9 -75.6 L 15.9 -75.6 Q 17.1 -74.8 17.4 -73.4 L 17.4 -73.4 L 17.4 -73.4 Q 18.1 -74.8 19.9 -75.7 L 19.9 -75.7 L 19.9 -75.7 Q 21.7 -76.5 23.9 -76.5 L 23.9 -76.5 L 23.9 -76.5 Q 26.1 -76.5 27.2 -76 L 27.2 -76 L 27.2 -76 Q 28.3 -75.6 28.9 -74.8 L 28.9 -74.8 L 28.9 -74.8 Q 30 -73.3 30 -70.7 L 30 -70.7 L 30 -70.7 Q 30 -68.1 28.9 -62.8 L 28.9 -62.8 L 28.9 -62.8 Q 28.3 -60.1 28.3 -59.2 L 28.3 -59.2 L 28.3 -59.2 Q 28.3 -58.2 28.9 -57.6 L 28.9 -57.6 L 28.9 -57.6 Q 29.5 -57.1 30.3 -57 L 30.3 -57 L 30.3 -57 Q 29.9 -55.6 28.4 -54.8 L 28.4 -54.8 L 28.4 -54.8 Q 27 -54 25.2 -54 Z M 35.2 -56 L 35.2 -56 L 35.2 -56 Q 34.3 -57.1 33.8 -58.8 L 33.8 -58.8 L 33.8 -58.8 Q 33.4 -60.4 33.4 -63.2 L 33.4 -63.2 L 33.4 -63.2 Q 33.4 -65.9 34.3 -68.4 L 34.3 -68.4 L 34.3 -68.4 Q 35.3 -70.9 37 -72.7 L 37 -72.7 L 37 -72.7 Q 40.5 -76.5 46.3 -76.5 L 46.3 -76.5 L 46.3 -76.5 Q 48.4 -76.5 50 -75.8 L 50 -75.8 L 57 -76.5 L 53.9 -60.5 L 53.9 -60.5 Q 53.8 -60 53.8 -59.1 L 53.8 -59.1 L 53.8 -59.1 Q 53.8 -58.2 54.4 -57.6 L 54.4 -57.6 L 54.4 -57.6 Q 54.9 -57.1 55.7 -57 L 55.7 -57 L 55.7 -57 Q 55.3 -55.6 53.8 -54.8 L 53.8 -54.8 L 53.8 -54.8 Q 52.3 -54 50.7 -54 L 50.7 -54 L 50.7 -54 Q 49 -54 47.8 -54.6 L 47.8 -54.6 L 47.8 -54.6 Q 46.7 -55.2 46.4 -56.3 L 46.4 -56.3 L 46.4 -56.3 Q 45.7 -55.3 44.3 -54.6 L 44.3 -54.6 L 44.3 -54.6 Q 42.9 -54 41.1 -54 L 41.1 -54 L 41.1 -54 Q 39.2 -54 37.7 -54.4 L 37.7 -54.4 L 37.7 -54.4 Q 36.2 -54.9 35.2 -56 Z M 43.9 -72.7 L 43.9 -72.7 L 43.9 -72.7 Q 43.4 -71.9 43 -70.7 L 43 -70.7 L 43 -70.7 Q 42.6 -69.4 41.9 -66.1 L 41.9 -66.1 L 41.9 -66.1 Q 41.2 -62.7 41.2 -60.4 L 41.2 -60.4 L 41.2 -60.4 Q 41.2 -58 41.6 -57.3 L 41.6 -57.3 L 41.6 -57.3 Q 42 -56.6 42.6 -56.6 L 42.6 -56.6 L 42.6 -56.6 Q 43.9 -56.6 44.9 -57.8 L 44.9 -57.8 L 44.9 -57.8 Q 45.9 -59.1 46.2 -61.3 L 46.2 -61.3 L 48.4 -73.3 L 48.4 -73.3 Q 47.5 -74 46.5 -74 L 46.5 -74 L 46.5 -74 Q 45.5 -74 44.9 -73.7 L 44.9 -73.7 L 44.9 -73.7 Q 44.3 -73.4 43.9 -72.7 Z M 61.9 -71.9 L 61.9 -71.9 L 61.9 -71.9 Q 63.3 -73.9 65.4 -75.2 L 65.4 -75.2 L 65.4 -75.2 Q 67.5 -76.5 70.1 -76.5 L 70.1 -76.5 L 70.1 -76.5 Q 72.7 -76.5 73.9 -75.7 L 73.9 -75.7 L 82 -76.5 L 79.2 -60.8 L 79.2 -60.8 Q 77.8 -52.7 74.7 -49.6 L 74.7 -49.6 L 74.7 -49.6 Q 71.8 -46.6 66.1 -46.6 L 66.1 -46.6 L 66.1 -46.6 Q 61.8 -46.6 59.4 -47.9 L 59.4 -47.9 L 59.4 -47.9 Q 56.9 -49.3 56.9 -51.5 L 56.9 -51.5 L 56.9 -51.5 Q 56.9 -53.2 58.2 -54.2 L 58.2 -54.2 L 58.2 -54.2 Q 59.5 -55.1 61.4 -55.1 L 61.4 -55.1 L 61.4 -55.1 Q 63.2 -55.1 64.5 -54.4 L 64.5 -54.4 L 64.5 -54.4 Q 65.2 -54 65.6 -53.4 L 65.6 -53.4 L 65.6 -53.4 Q 64.7 -52.6 64.7 -51.2 L 64.7 -51.2 L 64.7 -51.2 Q 64.7 -49.4 66.3 -49.4 L 66.3 -49.4 L 66.3 -49.4 Q 69.1 -49.4 70.6 -55.9 L 70.6 -55.9 L 70.6 -55.9 Q 71.1 -57.7 71.4 -59.4 L 71.4 -59.4 L 71.4 -59.4 Q 69.6 -57.2 65.4 -57.2 L 65.4 -57.2 L 65.4 -57.2 Q 62.5 -57.2 60.8 -58.6 L 60.8 -58.6 L 60.8 -58.6 Q 59.1 -60 59.1 -63.3 L 59.1 -63.3 L 59.1 -63.3 Q 59.1 -65.3 59.8 -67.6 L 59.8 -67.6 L 59.8 -67.6 Q 60.5 -69.9 61.9 -71.9 Z M 67.3 -63.1 L 67.3 -63.1 L 67.3 -63.1 Q 67.3 -60.4 68.7 -60.4 L 68.7 -60.4 L 68.7 -60.4 Q 69.7 -60.4 70.6 -61.4 L 70.6 -61.4 L 70.6 -61.4 Q 71.4 -62.3 71.6 -63.5 L 71.6 -63.5 L 73.7 -74.1 L 73.7 -74.1 Q 73.5 -74.1 73.3 -74.2 L 73.3 -74.2 L 73.3 -74.2 Q 72.9 -74.4 72.4 -74.4 L 72.4 -74.4 L 72.4 -74.4 Q 69.9 -74.4 68.4 -70.3 L 68.4 -70.3 L 68.4 -70.3 Q 67.3 -67.1 67.3 -63.1 Z M 100.2 -61.7 L 100.2 -61.7 L 100.2 -61.7 Q 101.2 -61 101.2 -59.5 L 101.2 -59.5 L 101.2 -59.5 Q 101.2 -57.9 100.4 -56.9 L 100.4 -56.9 L 100.4 -56.9 Q 99.6 -56 98.4 -55.3 L 98.4 -55.3 L 98.4 -55.3 Q 95.8 -54 92.9 -54 L 92.9 -54 L 92.9 -54 Q 90.1 -54 88.4 -54.6 L 88.4 -54.6 L 88.4 -54.6 Q 86.8 -55.2 85.7 -56.3 L 85.7 -56.3 L 85.7 -56.3 Q 83.5 -58.5 83.5 -62.5 L 83.5 -62.5 L 83.5 -62.5 Q 83.5 -68.7 86.9 -72.4 L 86.9 -72.4 L 86.9 -72.4 Q 90.5 -76.5 96.7 -76.5 L 96.7 -76.5 L 96.7 -76.5 Q 100.6 -76.5 102.6 -74.9 L 102.6 -74.9 L 102.6 -74.9 Q 104 -73.6 104 -71.6 L 104 -71.6 L 104 -71.6 Q 104 -64.4 91.5 -64.4 L 91.5 -64.4 L 91.5 -64.4 Q 91.4 -63.3 91.4 -62.4 L 91.4 -62.4 L 91.4 -62.4 Q 91.4 -60.6 92.2 -59.8 L 92.2 -59.8 L 92.2 -59.8 Q 93 -59.1 94.6 -59.1 L 94.6 -59.1 L 94.6 -59.1 Q 96.2 -59.1 97.8 -59.8 L 97.8 -59.8 L 97.8 -59.8 Q 99.5 -60.6 100.2 -61.7 Z M 91.8 -66.2 L 91.8 -66.2 L 91.8 -66.2 Q 94.7 -66.2 96.4 -68 L 96.4 -68 L 96.4 -68 Q 98.1 -69.7 98.1 -72.4 L 98.1 -72.4 L 98.1 -72.4 Q 98.1 -73.4 97.7 -73.9 L 97.7 -73.9 L 97.7 -73.9 Q 97.4 -74.4 96.7 -74.4 L 96.7 -74.4 L 96.7 -74.4 Q 96 -74.4 95.4 -74.1 L 95.4 -74.1 L 95.4 -74.1 Q 94.8 -73.9 94.2 -73 L 94.2 -73 L 94.2 -73 Q 92.7 -70.9 91.8 -66.2 Z M 117.6 -69.2 L 117.6 -69.2 L 117.6 -69.2 Q 118.2 -70.7 118.2 -72 L 118.2 -72 L 118.2 -72 Q 118.2 -74.4 116.3 -74.4 L 116.3 -74.4 L 116.3 -74.4 Q 115.2 -74.4 114.4 -73.5 L 114.4 -73.5 L 114.4 -73.5 Q 113.5 -72.6 113.5 -71.4 L 113.5 -71.4 L 113.5 -71.4 Q 113.5 -70.6 114.2 -69.9 L 114.2 -69.9 L 114.2 -69.9 Q 115.1 -69 117.6 -67.6 L 117.6 -67.6 L 117.6 -67.6 Q 120 -66.1 120.9 -64.9 L 120.9 -64.9 L 120.9 -64.9 Q 121.8 -63.7 121.8 -62 L 121.8 -62 L 121.8 -62 Q 121.8 -60.4 121 -58.8 L 121 -58.8 L 121 -58.8 Q 120.2 -57.3 118.8 -56.3 L 118.8 -56.3 L 118.8 -56.3 Q 115.7 -54 110.8 -54 L 110.8 -54 L 110.8 -54 Q 108.1 -54 106.1 -55.3 L 106.1 -55.3 L 106.1 -55.3 Q 104 -56.7 104 -58.3 L 104 -58.3 L 104 -58.3 Q 104 -59.9 105.2 -60.8 L 105.2 -60.8 L 105.2 -60.8 Q 106.4 -61.8 108.1 -61.8 L 108.1 -61.8 L 108.1 -61.8 Q 109.8 -61.8 110.9 -61.1 L 110.9 -61.1 L 110.9 -61.1 Q 110.3 -59.8 110.3 -58.9 L 110.3 -58.9 L 110.3 -58.9 Q 110.3 -56.2 112.6 -56.2 L 112.6 -56.2 L 112.6 -56.2 Q 113.6 -56.2 114.3 -56.8 L 114.3 -56.8 L 114.3 -56.8 Q 114.9 -57.4 114.9 -58.5 L 114.9 -58.5 L 114.9 -58.5 Q 114.9 -60.6 111.4 -62.8 L 111.4 -62.8 L 111.4 -62.8 Q 108.5 -64.7 107.9 -65.4 L 107.9 -65.4 L 107.9 -65.4 Q 106.8 -66.7 106.8 -68.3 L 106.8 -68.3 L 106.8 -68.3 Q 106.8 -70 107.6 -71.5 L 107.6 -71.5 L 107.6 -71.5 Q 108.3 -73.1 109.8 -74.2 L 109.8 -74.2 L 109.8 -74.2 Q 112.8 -76.5 118 -76.5 L 118 -76.5 L 118 -76.5 Q 120.6 -76.5 122.2 -75.4 L 122.2 -75.4 L 122.2 -75.4 Q 123.8 -74.4 123.8 -72.6 L 123.8 -72.6 L 123.8 -72.6 Q 123.8 -70.8 122.7 -69.7 L 122.7 -69.7 L 122.7 -69.7 Q 121.6 -68.7 119.7 -68.7 L 119.7 -68.7 L 119.7 -68.7 Q 118.3 -68.7 117.6 -69.2 Z M 150.4 -68 L 158.6 -68.7 L 158.6 -68.7 Q 155.7 -62.2 155.7 -54.7 L 155.7 -54.7 L 155.7 -54.7 Q 154.6 -54 153 -54 L 153 -54 L 153 -54 Q 151.3 -54 150.3 -54.7 L 150.3 -54.7 L 150.3 -54.7 Q 149.3 -55.5 149.1 -56.3 L 149.1 -56.3 L 149.1 -56.3 Q 148.1 -55.2 146.4 -54.6 L 146.4 -54.6 L 146.4 -54.6 Q 144.7 -54 143 -54 L 143 -54 L 143 -54 Q 141.2 -54 139.7 -54.5 L 139.7 -54.5 L 139.7 -54.5 Q 138.1 -55.1 137 -56.4 L 137 -56.4 L 137 -56.4 Q 134.3 -59.2 134.3 -64.5 L 134.3 -64.5 L 134.3 -64.5 Q 134.3 -72.7 138.7 -77.6 L 138.7 -77.6 L 138.7 -77.6 Q 143.2 -82.7 151.2 -82.7 L 151.2 -82.7 L 151.2 -82.7 Q 156.8 -82.7 158.7 -79.8 L 158.7 -79.8 L 158.7 -79.8 Q 159.3 -78.9 159.3 -77.8 L 159.3 -77.8 L 159.3 -77.8 Q 159.3 -76.7 158.9 -75.8 L 158.9 -75.8 L 158.9 -75.8 Q 158.4 -74.9 157.7 -74.1 L 157.7 -74.1 L 157.7 -74.1 Q 155.9 -72.5 153.7 -72.5 L 153.7 -72.5 L 153.7 -72.5 Q 152.9 -72.5 152 -72.8 L 152 -72.8 L 152 -72.8 Q 152.2 -74 152.2 -75.4 L 152.2 -75.4 L 152.2 -75.4 Q 152.2 -76.9 152.1 -77.5 L 152.1 -77.5 L 152.1 -77.5 Q 152 -78.2 151.8 -78.7 L 151.8 -78.7 L 151.8 -78.7 Q 151.2 -79.8 150.1 -79.8 L 150.1 -79.8 L 150.1 -79.8 Q 148.9 -79.8 147.6 -78.6 L 147.6 -78.6 L 147.6 -78.6 Q 146.3 -77.3 145.3 -75.3 L 145.3 -75.3 L 145.3 -75.3 Q 143 -70.7 143 -65.1 L 143 -65.1 L 143 -65.1 Q 143 -62.6 144 -60.8 L 144 -60.8 L 144 -60.8 Q 145.1 -58.8 147 -58.8 L 147 -58.8 L 147 -58.8 Q 147.6 -58.8 148.2 -59.2 L 148.2 -59.2 L 148.2 -59.2 Q 148.8 -59.5 149.1 -59.7 L 149.1 -59.7 L 150.4 -68 Z M 162.4 -56 L 162.4 -56 L 162.4 -56 Q 161.5 -57.1 161 -58.8 L 161 -58.8 L 161 -58.8 Q 160.6 -60.4 160.6 -63.2 L 160.6 -63.2 L 160.6 -63.2 Q 160.6 -65.9 161.6 -68.4 L 161.6 -68.4 L 161.6 -68.4 Q 162.5 -70.9 164.2 -72.7 L 164.2 -72.7 L 164.2 -72.7 Q 167.7 -76.5 173.6 -76.5 L 173.6 -76.5 L 173.6 -76.5 Q 175.7 -76.5 177.2 -75.8 L 177.2 -75.8 L 184.2 -76.5 L 181.2 -60.5 L 181.2 -60.5 Q 181 -60 181 -59.1 L 181 -59.1 L 181 -59.1 Q 181 -58.2 181.6 -57.6 L 181.6 -57.6 L 181.6 -57.6 Q 182.1 -57.1 183 -57 L 183 -57 L 183 -57 Q 182.5 -55.6 181.1 -54.8 L 181.1 -54.8 L 181.1 -54.8 Q 179.6 -54 177.9 -54 L 177.9 -54 L 177.9 -54 Q 176.2 -54 175.1 -54.6 L 175.1 -54.6 L 175.1 -54.6 Q 173.9 -55.2 173.6 -56.3 L 173.6 -56.3 L 173.6 -56.3 Q 173 -55.3 171.6 -54.6 L 171.6 -54.6 L 171.6 -54.6 Q 170.2 -54 168.3 -54 L 168.3 -54 L 168.3 -54 Q 166.4 -54 164.9 -54.4 L 164.9 -54.4 L 164.9 -54.4 Q 163.4 -54.9 162.4 -56 Z M 171.1 -72.7 L 171.1 -72.7 L 171.1 -72.7 Q 170.6 -71.9 170.2 -70.7 L 170.2 -70.7 L 170.2 -70.7 Q 169.8 -69.4 169.1 -66.1 L 169.1 -66.1 L 169.1 -66.1 Q 168.4 -62.7 168.4 -60.4 L 168.4 -60.4 L 168.4 -60.4 Q 168.4 -58 168.8 -57.3 L 168.8 -57.3 L 168.8 -57.3 Q 169.2 -56.6 169.8 -56.6 L 169.8 -56.6 L 169.8 -56.6 Q 171.1 -56.6 172.1 -57.8 L 172.1 -57.8 L 172.1 -57.8 Q 173.1 -59.1 173.4 -61.3 L 173.4 -61.3 L 175.6 -73.3 L 175.6 -73.3 Q 174.8 -74 173.8 -74 L 173.8 -74 L 173.8 -74 Q 172.7 -74 172.2 -73.7 L 172.2 -73.7 L 172.2 -73.7 Q 171.6 -73.4 171.1 -72.7 Z M 196.2 -57 L 196.2 -57 L 196.2 -57 Q 194.9 -54 190.9 -54 L 190.9 -54 L 190.9 -54 Q 188.8 -54 187.5 -55.4 L 187.5 -55.4 L 187.5 -55.4 Q 186.4 -56.6 186.4 -57.9 L 186.4 -57.9 L 186.4 -57.9 Q 186.4 -61 187.9 -67.7 L 187.9 -67.7 L 190.9 -83.5 L 199.2 -84.3 L 195.2 -63.5 L 195.2 -63.5 Q 194.5 -60.5 194.5 -59.4 L 194.5 -59.4 L 194.5 -59.4 Q 194.5 -57.1 196.2 -57 Z M 209.5 -57 L 209.5 -57 L 209.5 -57 Q 208.2 -54 204.2 -54 L 204.2 -54 L 204.2 -54 Q 202.1 -54 200.8 -55.4 L 200.8 -55.4 L 200.8 -55.4 Q 199.7 -56.6 199.7 -57.9 L 199.7 -57.9 L 199.7 -57.9 Q 199.7 -61 201.2 -67.7 L 201.2 -67.7 L 204.2 -83.5 L 212.5 -84.3 L 208.5 -63.5 L 208.5 -63.5 Q 207.8 -60.5 207.8 -59.4 L 207.8 -59.4 L 207.8 -59.4 Q 207.8 -57.1 209.5 -57 Z M 229.6 -61.7 L 229.6 -61.7 L 229.6 -61.7 Q 230.6 -61 230.6 -59.5 L 230.6 -59.5 L 230.6 -59.5 Q 230.6 -57.9 229.8 -56.9 L 229.8 -56.9 L 229.8 -56.9 Q 229 -56 227.8 -55.3 L 227.8 -55.3 L 227.8 -55.3 Q 225.1 -54 222.3 -54 L 222.3 -54 L 222.3 -54 Q 219.5 -54 217.8 -54.6 L 217.8 -54.6 L 217.8 -54.6 Q 216.2 -55.2 215.1 -56.3 L 215.1 -56.3 L 215.1 -56.3 Q 212.9 -58.5 212.9 -62.5 L 212.9 -62.5 L 212.9 -62.5 Q 212.9 -68.7 216.2 -72.4 L 216.2 -72.4 L 216.2 -72.4 Q 219.9 -76.5 226.1 -76.5 L 226.1 -76.5 L 226.1 -76.5 Q 230 -76.5 232 -74.9 L 232 -74.9 L 232 -74.9 Q 233.4 -73.6 233.4 -71.6 L 233.4 -71.6 L 233.4 -71.6 Q 233.4 -64.4 220.9 -64.4 L 220.9 -64.4 L 220.9 -64.4 Q 220.8 -63.3 220.8 -62.4 L 220.8 -62.4 L 220.8 -62.4 Q 220.8 -60.6 221.6 -59.8 L 221.6 -59.8 L 221.6 -59.8 Q 222.4 -59.1 224 -59.1 L 224 -59.1 L 224 -59.1 Q 225.6 -59.1 227.2 -59.8 L 227.2 -59.8 L 227.2 -59.8 Q 228.9 -60.6 229.6 -61.7 Z M 221.2 -66.2 L 221.2 -66.2 L 221.2 -66.2 Q 224.1 -66.2 225.8 -68 L 225.8 -68 L 225.8 -68 Q 227.5 -69.7 227.5 -72.4 L 227.5 -72.4 L 227.5 -72.4 Q 227.5 -73.4 227.1 -73.9 L 227.1 -73.9 L 227.1 -73.9 Q 226.8 -74.4 226.1 -74.4 L 226.1 -74.4 L 226.1 -74.4 Q 225.4 -74.4 224.8 -74.1 L 224.8 -74.1 L 224.8 -74.1 Q 224.2 -73.9 223.6 -73 L 223.6 -73 L 223.6 -73 Q 222.1 -70.9 221.2 -66.2 Z M 247.6 -66.3 L 247.6 -66.3 L 247.6 -66.3 Q 249.1 -68.9 249.1 -71.6 L 249.1 -71.6 L 249.1 -71.6 Q 249.1 -73.3 247.8 -73.3 L 247.8 -73.3 L 247.8 -73.3 Q 246.8 -73.3 245.8 -71.7 L 245.8 -71.7 L 245.8 -71.7 Q 244.7 -70 244.4 -67.8 L 244.4 -67.8 L 242.3 -54.8 L 233.8 -54 L 238 -75.7 L 244.7 -76.5 L 244 -72.4 L 244 -72.4 Q 246 -76.5 250.5 -76.5 L 250.5 -76.5 L 250.5 -76.5 Q 252.9 -76.5 254.2 -75.3 L 254.2 -75.3 L 254.2 -75.3 Q 255.5 -74 255.5 -71.5 L 255.5 -71.5 L 255.5 -71.5 Q 255.5 -69 253.8 -67.4 L 253.8 -67.4 L 253.8 -67.4 Q 252.2 -65.8 249.3 -65.8 L 249.3 -65.8 L 249.3 -65.8 Q 248.1 -65.8 247.6 -66.3 Z M 269.2 -59.4 L 269.2 -59.4 L 269.2 -59.4 Q 267 -57.2 263.2 -57.2 L 263.2 -57.2 L 263.2 -57.2 Q 258.3 -57.2 257.2 -60.8 L 257.2 -60.8 L 257.2 -60.8 Q 256.9 -61.8 256.9 -63 L 256.9 -63 L 256.9 -63 Q 256.9 -64.2 257.2 -65.4 L 257.2 -65.4 L 259.1 -75.7 L 267.4 -76.5 L 265.2 -64.6 L 265.2 -64.6 Q 265.1 -64 265 -63.5 L 265 -63.5 L 265 -63.5 Q 264.8 -62.9 264.8 -62.3 L 264.8 -62.3 L 264.8 -62.3 Q 264.8 -61.7 265 -61.3 L 265 -61.3 L 265 -61.3 Q 265.2 -60.9 265.5 -60.7 L 265.5 -60.7 L 265.5 -60.7 Q 266 -60.4 266.9 -60.4 L 266.9 -60.4 L 266.9 -60.4 Q 267.8 -60.4 268.5 -61.4 L 268.5 -61.4 L 268.5 -61.4 Q 269.3 -62.5 269.7 -64.3 L 269.7 -64.3 L 271.9 -75.7 L 280 -76.5 L 276.9 -60.4 L 276.9 -60.4 Q 275.4 -52.5 272.3 -49.4 L 272.3 -49.4 L 272.3 -49.4 Q 270.7 -47.8 268.6 -47.2 L 268.6 -47.2 L 268.6 -47.2 Q 266.6 -46.5 263.9 -46.5 L 263.9 -46.5 L 263.9 -46.5 Q 259.6 -46.5 257.1 -47.9 L 257.1 -47.9 L 257.1 -47.9 Q 254.7 -49.2 254.7 -51.5 L 254.7 -51.5 L 254.7 -51.5 Q 254.7 -53.2 255.9 -54.1 L 255.9 -54.1 L 255.9 -54.1 Q 257.2 -55.1 259.2 -55.1 L 259.2 -55.1 L 259.2 -55.1 Q 260.9 -55.1 262.2 -54.4 L 262.2 -54.4 L 262.2 -54.4 Q 263 -53.9 263.4 -53.3 L 263.4 -53.3 L 263.4 -53.3 Q 262.4 -52.5 262.4 -51.2 L 262.4 -51.2 L 262.4 -51.2 Q 262.4 -49.4 264.1 -49.4 L 264.1 -49.4 L 264.1 -49.4 Q 266.8 -49.4 268.3 -55.6 L 268.3 -55.6 L 268.3 -55.6 Q 268.8 -57.4 269.2 -59.4 Z M 307.9 -54 L 307.9 -54 L 307.9 -54 Q 302.7 -54 302.2 -61.4 L 302.2 -61.4 L 295.1 -61.4 L 295.1 -61.4 Q 294.3 -59.5 293.7 -57.9 L 293.7 -57.9 L 292.7 -54.8 L 286.9 -54.8 L 299.8 -81.8 L 308.7 -81.8 L 310.4 -61.9 L 310.4 -61.9 Q 310.8 -57.6 312.4 -56.3 L 312.4 -56.3 L 312.4 -56.3 Q 311.2 -54 307.9 -54 Z M 298.7 -69.6 L 296.4 -64.4 L 302.1 -64.4 L 301.6 -74.9 L 301.6 -76.1 L 298.7 -69.6 Z M 324.6 -57 L 324.6 -57 L 324.6 -57 Q 323.3 -54 319.3 -54 L 319.3 -54 L 319.3 -54 Q 317.2 -54 315.9 -55.4 L 315.9 -55.4 L 315.9 -55.4 Q 314.9 -56.6 314.9 -57.9 L 314.9 -57.9 L 314.9 -57.9 Q 314.9 -61 316.3 -67.7 L 316.3 -67.7 L 319.3 -83.5 L 327.6 -84.3 L 323.6 -63.5 L 323.6 -63.5 Q 322.9 -60.5 322.9 -59.4 L 322.9 -59.4 L 322.9 -59.4 Q 322.9 -57.1 324.6 -57 Z M 343 -75 L 343 -75 L 343 -75 Q 344.3 -76.5 346.7 -76.5 L 346.7 -76.5 L 346.7 -76.5 Q 348.1 -76.5 349.2 -75.7 L 349.2 -75.7 L 349.2 -75.7 Q 350.3 -74.9 350.3 -73.5 L 350.3 -73.5 L 350.3 -73.5 Q 350.3 -72 349.9 -70.5 L 349.9 -70.5 L 349.9 -70.5 Q 349.4 -68.9 348.7 -67.3 L 348.7 -67.3 L 348.7 -67.3 Q 347.3 -64.2 345.4 -61.6 L 345.4 -61.6 L 345.4 -61.6 Q 342.7 -57.9 340.1 -55.9 L 340.1 -55.9 L 340.1 -55.9 Q 337.5 -54 334.7 -54 L 334.7 -54 L 334.7 -54 Q 332.4 -54 331 -54.5 L 331 -54.5 L 331 -54.5 Q 330.7 -63.1 330.4 -66.2 L 330.4 -66.2 L 330.4 -66.2 Q 330.1 -69.2 329.9 -70.9 L 329.9 -70.9 L 329.9 -70.9 Q 329.5 -74.2 328.2 -75 L 328.2 -75 L 328.2 -75 Q 329.2 -75.8 330.1 -76.2 L 330.1 -76.2 L 330.1 -76.2 Q 331 -76.5 332.9 -76.5 L 332.9 -76.5 L 332.9 -76.5 Q 334.8 -76.5 336.2 -75 L 336.2 -75 L 336.2 -75 Q 337.5 -73.5 337.8 -70.9 L 337.8 -70.9 L 337.8 -70.9 Q 338.1 -68.2 338.1 -65 L 338.1 -65 L 338.1 -65 Q 338.1 -61.8 337.8 -58 L 337.8 -58 L 337.8 -58 Q 339.1 -58.9 340.4 -61.6 L 340.4 -61.6 L 340.4 -61.6 Q 342.3 -65.4 342.9 -70 L 342.9 -70 L 342.9 -70 Q 343.1 -71.4 343.1 -72.9 L 343.1 -72.9 L 343.1 -72.9 Q 343.1 -74.4 343 -75 Z M 353.2 -56 L 353.2 -56 L 353.2 -56 Q 352.2 -57.1 351.8 -58.8 L 351.8 -58.8 L 351.8 -58.8 Q 351.4 -60.4 351.4 -63.2 L 351.4 -63.2 L 351.4 -63.2 Q 351.4 -65.9 352.3 -68.4 L 352.3 -68.4 L 352.3 -68.4 Q 353.3 -70.9 355 -72.7 L 355 -72.7 L 355 -72.7 Q 358.5 -76.5 364.3 -76.5 L 364.3 -76.5 L 364.3 -76.5 Q 366.4 -76.5 368 -75.8 L 368 -75.8 L 375 -76.5 L 371.9 -60.5 L 371.9 -60.5 Q 371.8 -60 371.8 -59.1 L 371.8 -59.1 L 371.8 -59.1 Q 371.8 -58.2 372.4 -57.6 L 372.4 -57.6 L 372.4 -57.6 Q 372.9 -57.1 373.7 -57 L 373.7 -57 L 373.7 -57 Q 373.3 -55.6 371.8 -54.8 L 371.8 -54.8 L 371.8 -54.8 Q 370.3 -54 368.6 -54 L 368.6 -54 L 368.6 -54 Q 367 -54 365.8 -54.6 L 365.8 -54.6 L 365.8 -54.6 Q 364.7 -55.2 364.4 -56.3 L 364.4 -56.3 L 364.4 -56.3 Q 363.7 -55.3 362.3 -54.6 L 362.3 -54.6 L 362.3 -54.6 Q 360.9 -54 359.1 -54 L 359.1 -54 L 359.1 -54 Q 357.2 -54 355.7 -54.4 L 355.7 -54.4 L 355.7 -54.4 Q 354.2 -54.9 353.2 -56 Z M 361.9 -72.7 L 361.9 -72.7 L 361.9 -72.7 Q 361.4 -71.9 361 -70.7 L 361 -70.7 L 361 -70.7 Q 360.6 -69.4 359.9 -66.1 L 359.9 -66.1 L 359.9 -66.1 Q 359.2 -62.7 359.2 -60.4 L 359.2 -60.4 L 359.2 -60.4 Q 359.2 -58 359.6 -57.3 L 359.6 -57.3 L 359.6 -57.3 Q 360 -56.6 360.6 -56.6 L 360.6 -56.6 L 360.6 -56.6 Q 361.9 -56.6 362.9 -57.8 L 362.9 -57.8 L 362.9 -57.8 Q 363.9 -59.1 364.2 -61.3 L 364.2 -61.3 L 366.4 -73.3 L 366.4 -73.3 Q 365.5 -74 364.5 -74 L 364.5 -74 L 364.5 -74 Q 363.5 -74 362.9 -73.7 L 362.9 -73.7 L 362.9 -73.7 Q 362.3 -73.4 361.9 -72.7 Z M 390 -66.3 L 390 -66.3 L 390 -66.3 Q 391.5 -68.9 391.5 -71.6 L 391.5 -71.6 L 391.5 -71.6 Q 391.5 -73.3 390.2 -73.3 L 390.2 -73.3 L 390.2 -73.3 Q 389.2 -73.3 388.2 -71.7 L 388.2 -71.7 L 388.2 -71.7 Q 387.1 -70 386.8 -67.8 L 386.8 -67.8 L 384.7 -54.8 L 376.2 -54 L 380.4 -75.7 L 387.1 -76.5 L 386.4 -72.4 L 386.4 -72.4 Q 388.4 -76.5 392.9 -76.5 L 392.9 -76.5 L 392.9 -76.5 Q 395.3 -76.5 396.6 -75.3 L 396.6 -75.3 L 396.6 -75.3 Q 397.9 -74 397.9 -71.5 L 397.9 -71.5 L 397.9 -71.5 Q 397.9 -69 396.2 -67.4 L 396.2 -67.4 L 396.2 -67.4 Q 394.6 -65.8 391.7 -65.8 L 391.7 -65.8 L 391.7 -65.8 Q 390.5 -65.8 390 -66.3 Z M 407.5 -54 L 407.5 -54 L 407.5 -54 Q 398.5 -54 398.5 -62.4 L 398.5 -62.4 L 398.5 -62.4 Q 398.5 -68.5 401.8 -72.4 L 401.8 -72.4 L 401.8 -72.4 Q 405.3 -76.5 411.4 -76.5 L 411.4 -76.5 L 411.4 -76.5 Q 415.8 -76.5 418.1 -74.5 L 418.1 -74.5 L 418.1 -74.5 Q 420.3 -72.4 420.3 -68.1 L 420.3 -68.1 L 420.3 -68.1 Q 420.3 -61.5 416.8 -57.7 L 416.8 -57.7 L 416.8 -57.7 Q 413.4 -54 407.5 -54 Z M 408.5 -71.8 L 408.5 -71.8 L 408.5 -71.8 Q 408 -70.7 407.7 -69 L 407.7 -69 L 407.7 -69 Q 407.3 -67.4 406.8 -64.7 L 406.8 -64.7 L 406.8 -64.7 Q 406.3 -62.1 406.3 -58.9 L 406.3 -58.9 L 406.3 -58.9 Q 406.3 -57.8 406.6 -57.1 L 406.6 -57.1 L 406.6 -57.1 Q 407 -56.4 407.9 -56.4 L 407.9 -56.4 L 407.9 -56.4 Q 408.9 -56.4 409.5 -56.9 L 409.5 -56.9 L 409.5 -56.9 Q 410.1 -57.3 410.5 -58.4 L 410.5 -58.4 L 410.5 -58.4 Q 411.3 -60.3 412 -63.8 L 412 -63.8 L 412 -63.8 Q 412.6 -67.3 412.7 -68.8 L 412.7 -68.8 L 412.7 -68.8 Q 412.8 -70.3 412.8 -71.4 L 412.8 -71.4 L 412.8 -71.4 Q 412.8 -72.6 412.4 -73.3 L 412.4 -73.3 L 412.4 -73.3 Q 412.1 -74 411.2 -74 L 411.2 -74 L 411.2 -74 Q 410.3 -74 409.6 -73.5 L 409.6 -73.5 L 409.6 -73.5 Q 409 -72.9 408.5 -71.8 Z" fill="url(#editing-gradient-gradient)"></path></g></g><style>text {
  font-size: 64px;
  font-family: Arial Black;
  dominant-baseline: central;
  text-anchor: middle;
}</style></svg>